<?xml version="1.0" encoding="UTF-8"?><svg id="_レイヤー_2" xmlns="http://www.w3.org/2000/svg" viewBox="0 0 420 420"><defs><style>.cls-1{fill:#fff;}</style></defs><g id="_レイヤー_1-2"><path class="cls-1" d="m50,0C22.4,0,0,22.4,0,50v320c0,27.6,22.4,50,50,50h320c27.6,0,50-22.4,50-50V50c0-27.6-22.4-50-50-50H50Zm160,70c82.7,0,150,53.59,150,119.49,0,26.3-10.41,50.12-32.21,73.52-15.7,17.8-41.19,37.39-64.69,53.59-23.5,16-45.11,28.59-53.11,31.89-3.2,1.3-5.6,1.89-7.5,1.89-6.6,0-6.01-6.98-5.51-9.88.4-2.2,2.21-12.62,2.21-12.62.5-3.7.99-9.58-.51-13.28-1.7-4.1-8.4-6.21-13.3-7.21-72-9.4-125.39-58.91-125.39-117.91,0-65.9,67.3-119.49,150-119.49Zm-10.08,79.98c-5.04.09-9.92,3.94-9.92,10.02v60c0,5.52,4.48,10,10,10s10-4.48,10-10v-28.79l21.86,34.59c5.66,7.92,18.14,3.93,18.14-5.8v-60c0-5.52-4.48-10-10-10s-10,4.48-10,10v30l-21.86-35.8c-2.12-2.97-5.2-4.27-8.22-4.22Zm-89.92.02c-5.52,0-10,4.48-10,10v60c0,5.52,4.48,10,10,10h30c5.52,0,10-4.48,10-10s-4.48-10-10-10h-20v-50c0-5.52-4.48-10-10-10Zm60,0c-5.52,0-10,4.48-10,10v60c0,5.52,4.48,10,10,10s10-4.48,10-10v-60c0-5.52-4.48-10-10-10Zm100,0c-5.52,0-10,4.48-10,10v60c0,5.52,4.48,10,10,10h30c5.52,0,10-4.48,10-10s-4.48-10-10-10h-20v-10h20c5.53,0,10-4.48,10-10s-4.47-10-10-10h-20v-10h20c5.52,0,10-4.48,10-10s-4.48-10-10-10h-30Z"/></g></svg>