<?xml version="1.0" encoding="UTF-8"?><svg id="_レイヤー_2" xmlns="http://www.w3.org/2000/svg" viewBox="0 0 193.45 121.84"><defs><style>.cls-1{fill:#fff;}.cls-2{fill:#040000;}.cls-3{fill:none;}.cls-4{fill:#a09e9a;}.cls-5{fill:#e51418;}.cls-6{fill:#231c1d;}</style></defs><g id="_レイヤー_1-2"><path class="cls-6" d="m132.16,37.62c-1.79-7.18-4.36-13.65-7.64-19.22-3.34-5.67-7.26-10.15-11.66-13.31-4.7-3.38-9.73-5.09-14.95-5.09s-10.25,1.71-14.95,5.09c-4.39,3.16-8.32,7.63-11.66,13.31-3.28,5.57-5.85,12.04-7.64,19.22-1.84,7.39-2.77,15.23-2.77,23.3s.93,15.92,2.77,23.3c1.79,7.18,4.36,13.65,7.64,19.22,3.34,5.67,7.26,10.15,11.66,13.31,4.7,3.38,9.73,5.09,14.95,5.09s10.25-1.71,14.95-5.09c4.39-3.16,8.32-7.63,11.66-13.31,3.28-5.57,5.85-12.04,7.64-19.22,1.84-7.39,2.77-15.23,2.77-23.3s-.93-15.92-2.77-23.3Zm-20.49,42.05c-.87,5.69-2.12,10.77-3.7,15.13-1.53,4.21-3.28,7.47-5.19,9.69-1.66,1.93-3.3,2.9-4.87,2.9s-3.21-.98-4.87-2.9c-1.91-2.23-3.66-5.49-5.19-9.69-1.58-4.35-2.83-9.44-3.7-15.13-.91-5.93-1.38-12.24-1.38-18.75s.46-12.82,1.38-18.75c.87-5.69,2.12-10.77,3.7-15.13,1.53-4.21,3.28-7.47,5.19-9.69,1.66-1.93,3.3-2.9,4.87-2.9s3.21.98,4.87,2.9c1.91,2.23,3.66,5.49,5.19,9.69,1.58,4.35,2.83,9.44,3.7,15.13.91,5.93,1.38,12.24,1.38,18.75s-.46,12.82-1.38,18.75Z"/><path class="cls-4" d="m131.26,37.84c-1.77-7.1-4.3-13.48-7.54-18.97-3.28-5.56-7.11-9.95-11.4-13.03-4.54-3.26-9.39-4.92-14.41-4.92s-9.87,1.65-14.41,4.92c-4.29,3.08-8.12,7.46-11.4,13.03-3.24,5.49-5.77,11.88-7.54,18.97-1.82,7.31-2.75,15.08-2.75,23.08s.92,15.77,2.75,23.08c1.77,7.1,4.3,13.48,7.54,18.97,3.28,5.56,7.11,9.95,11.4,13.03,4.54,3.26,9.39,4.92,14.41,4.92s9.87-1.65,14.41-4.92c4.29-3.08,8.12-7.46,11.4-13.03,3.24-5.49,5.77-11.88,7.54-18.97,1.82-7.31,2.75-15.08,2.75-23.08s-.92-15.77-2.75-23.08Zm-18.67,41.97c-.88,5.75-2.15,10.89-3.75,15.3-1.57,4.31-3.37,7.67-5.36,9.98-1.84,2.14-3.72,3.23-5.57,3.23s-3.73-1.09-5.57-3.23c-1.99-2.31-3.79-5.67-5.36-9.98-1.6-4.41-2.87-9.56-3.75-15.3-.92-5.98-1.39-12.33-1.39-18.89s.47-12.91,1.39-18.89c.88-5.75,2.15-10.89,3.75-15.3,1.57-4.31,3.37-7.67,5.36-9.98,1.84-2.14,3.72-3.23,5.57-3.23s3.73,1.09,5.57,3.23c1.99,2.31,3.79,5.67,5.36,9.98,1.6,4.41,2.87,9.56,3.75,15.3.92,5.98,1.39,12.33,1.39,18.89s-.47,12.91-1.39,18.89Z"/><path class="cls-1" d="m130.36,38.07c-1.75-7.01-4.25-13.31-7.44-18.73-3.21-5.45-6.96-9.74-11.14-12.74-4.38-3.15-9.05-4.74-13.87-4.74s-9.49,1.6-13.87,4.74c-4.18,3-7.93,7.29-11.14,12.74-3.19,5.42-5.69,11.72-7.44,18.73-1.8,7.24-2.72,14.93-2.72,22.86s.91,15.61,2.72,22.86c1.75,7.01,4.25,13.31,7.44,18.73,3.21,5.45,6.96,9.74,11.14,12.74,4.38,3.15,9.05,4.74,13.87,4.74s9.49-1.6,13.87-4.74c4.18-3,7.93-7.29,11.14-12.74,3.19-5.42,5.69-11.72,7.44-18.73,1.8-7.24,2.72-14.93,2.72-22.86s-.91-15.61-2.72-22.86Zm-16.86,41.89c-.89,5.8-2.17,11.01-3.79,15.48-1.61,4.42-3.47,7.87-5.53,10.27-2.02,2.35-4.14,3.55-6.27,3.55s-4.25-1.19-6.27-3.55c-2.06-2.4-3.92-5.85-5.53-10.27-1.62-4.47-2.9-9.67-3.79-15.48-.93-6.03-1.4-12.43-1.4-19.03s.47-13,1.4-19.03c.89-5.8,2.17-11.01,3.79-15.48,1.61-4.42,3.47-7.87,5.53-10.27,2.02-2.35,4.14-3.55,6.27-3.55s4.25,1.19,6.27,3.55c2.06,2.4,3.92,5.85,5.53,10.27,1.62,4.47,2.9,9.67,3.79,15.48.93,6.03,1.4,12.43,1.4,19.03s-.47,13-1.4,19.03Z"/><path class="cls-5" d="m97.91,2.78c-18.91,0-34.25,26.03-34.25,58.14s15.33,58.14,34.25,58.14,34.25-26.03,34.25-58.14S116.82,2.78,97.91,2.78Zm0,107.39c-9.89,0-17.92-22.05-17.92-49.25s8.02-49.25,17.92-49.25,17.92,22.05,17.92,49.25-8.02,49.25-17.92,49.25Z"/><path class="cls-3" d="m87.48,30.75l-.18.13.35-.21c-.06.02-.12.05-.17.08Z"/><path class="cls-1" d="m95.42,23.11c.57.06,1.15-.27,1.51-.42.27-.09.33-.61.36-.85-.06-.12-.09-.39-.3-.06-.03.12-.09.27-.24.36-.06.09-.79.49-.79.49-.09,0-.91.42-.54.48Z"/><path class="cls-1" d="m100.78,26.91v.39c.39.73.91.24.91.24.06-.21.27-.21.33-.06.06.15.12.09.12.09.13-.11.24-.06.3-.03.29-.43,0-1.21,0-1.21-.09.12-.24.57-.24.57-.67-.39-1-.06-1.42,0Z"/><path class="cls-1" d="m96.24,24.53l-.45-.79s-.24-.12-.3-.03c-.06.55.45,1.18.57,1.36.27.33.61.24.64,0,0-.39-.45-.55-.45-.55Z"/><path class="cls-1" d="m98.94,31.07l.12-1.66c.04-.36-.08-.85-.2-.89,0,0-.28-.04-.52-.2l-.16.36-.04,1.66c-.48-.4-.81-2.06-.81-2.06-.04-.53-.12-.61-.36-.73-.24-.12-.32.12-.28.28,0,1.41.85,3.39,1.01,3.71-.36.04-1.9-.44-1.9-.44l.08-.44c.04-.56-.24-.24-.44-.04-.08.24-.16.4-.49.28l-2.87-.48s-.36-.41-.65-.61c-.77-.57-.97.08-1.09.28q-.4.08-.81,0c-.61-.24-1.29.6-1.41.77-.09-.24-.29-.26-.48-.2l-.35.21-.67.48c.49.89,2.46,2.14,2.75,2.3l.2.49c-.73.69-1.41,2.14-1.45,2.7l.32.04c.44-1.81,1.53-2.26,1.73-2.38,0,0-.04.6.04.85,0,1.29.73,1.37,1.09,1.45.36.08,1.17.16,1.49.69.44.68.73.56,1.01.36,1.66-.49,4.04-.93,4.32-.97-2.06.69-3.23,1.5-3.71,1.7l.08.4c.2.77.61.69.89.53,1.45-.85,2.58-.65,3.11-.69.52-.04,1.37-.77,1.53-.97.16-.2.56-.81.97-.93.24-.16,3.03-1.33,3.51-1.45.48-.12.28-.32.28-.32-1.13-.93-2.74-.52-3.43-.24-2.5.89-3.71.57-4.56.2-1.69-.28-3.23.49-3.63.69.04-.2.12-.57.53-.69.81,0,1.17-.44,1.17-.44-.77-1.49-2.22-1.49-2.62-1.49,1.05-.52,1.13-1.57,1.13-1.89,1.78.12,4.12.97,4.28,1.21l-.16.36c1.05.4,1.13,1.49,1.25,1.9.32.81.32.44.61.36.81.08.4-.44.4-.44,0,0-.2-.16-.2-.32s0-.32-.16-.56c-.36-.36-.28-.64-.2-.81-.04-.24-.32-.85-.49-.97.36-.32,2.14-1.49,2.38-1.53l-.28.44c-.32.57-.2.73.16.52.24-.16.52-.28.65-.32l-.48.69c-.16.28-.08.36.08.36l.49-.12s-.28.32-.44.48c-.44.56.12.36.52.32l-.24.48c-.4.53-.28.73.04.61,1.05-.28,2.42.04,2.86.04.24-.2.44-.44.44-.97.08-.89-1.37-1.94-1.61-2.1-.24-.16-.36-.32-.36-.32l.28-.04c.93.4,1.77,1.45,2.02,1.86.12.32.28.28.28.28.64-.32.32-1.37.16-1.61.36-.12.81.24.93.36.89.89,1.54.52,1.54.52.56,0,.2-.69.16-.85-.13-.17-.13-.4.02-.29-.48-.75-1.28-1.57-2.62-1.63-.09.14-.28.07-.64.07s-.52.04-.64.28l-.08.36c-1.57-1.33-3.47,0-3.99.4.08-.19.08-1.22.15-1.54-.13-.2-.2-.46-.24-.68-.03,0-.05,0-.08-.01-.34,2.31-1.05,2.85-1.21,3.01Zm-6.98,1.77c-.2.08-.12.32-.12.32-1.05.28-1.54.48-1.66.73-.24-.24-.4-.89-.45-1.05-.12-.61-.4-.65-.4-.65.73-.28,1.17.48,1.29.77.4.16.77-.2.93-.24.48-.08.4.12.4.12Z"/><path class="cls-1" d="m99.78,24.17c.09.18.33.39.52-.12.06-.12.09-.15.21-.18.12-.03.21-.12.18-.48-.03-.21-.21-.76-.39-.97,0,0-.12-.18-.03-.18.09-.03.52-.18-.12-.3-.18,0-.82.06-.24.39-.09.03-.45.24-.76-.15-.18-.03-.24-.03-.39-.06-.15-.03-.61.15,0,.85.24.12,1.06.58,1.03,1.21Z"/><path class="cls-1" d="m102.54,25.94c-.21.06-1.06.12-1.57.03-.21-.03-.24.09-.24.09.21.45,1.51.27,1.72.27.23-.29.29-.53.3-.63-.01.06-.05.19-.21.23Z"/><path class="cls-1" d="m102.05,18.53c.03.09.08.19.12.31-.03-.13-.07-.23-.12-.31Z"/><path class="cls-1" d="m111.23,34.81c-.07-.13-.15-.26-.25-.4-.4-.54-.55-2.34-2.02-2.75.09.14.17.29.24.45.32.81-.16.57-.4.36-1.53-.48-2.3,0-2.75.24-.85.57-.28,1.25-.04,1.53.32.41.6.45.89.32,1.57-.2,2.34.2,2.7.36.61.28.2.32-.36.04-2.42-.49-3.47.44-3.75.69-.36.4-.16.4.16.36.97-.04,1.78.04,1.98.12.44.24.16.32-.08.2-1.66-.24-2.99.33-3.43.81-.44.36-.85,1.05-.44,1.13,3.75.49,6.13-.89,6.46-1.25.08-.16.16-.28.32-.2.28.24,0,.69-.12,1.01l.12.04s.89-.77,1.01-1.57l.04-.37c.93,1.58-1.01,2.91-1.21,3.19.69.2,1.09,0,1.41-.2.39-.5.72-.72.79-.76.15-1.58-.75-2.66-1.26-3.37Z"/><path class="cls-1" d="m100.42,25.37c-.27.24-.46.45-.79.36-.18-.03-.48-.06-.42.06.18.61.54.58.85.46.12-.06.88-.58,1.06-.55.36.12.76-.15.76-.15.24.33.73.15.88.12.32-.62-.55-.88-.55-.88-1.33-.06-1.67.45-1.79.58Z"/><path class="cls-2" d="m104.31,29.9l.08-.36c.12-.24.28-.28.64-.28s.55.07.64-.07c0,0,0-.01.01-.02-.48-.2-.69-.28-.89-.4-.2-.12-.52-.04-.89.16-.28-.08-2.34-.52-3.43-.2,0,0,0,.02,0,.03-.07.33-.08,1.35-.15,1.54.52-.4,2.42-1.73,3.99-.4Z"/><path class="cls-2" d="m111.7,38.94c-.32.2-.73.4-1.41.2.2-.28,2.14-1.61,1.21-3.19l-.04.37c-.12.81-1.01,1.57-1.01,1.57l-.12-.04c.12-.32.4-.77.12-1.01-.16-.08-.24.04-.32.2-.32.36-2.7,1.74-6.46,1.25-.4-.08,0-.77.44-1.13.45-.48,1.78-1.05,3.43-.81.24.12.52.04.08-.2-.2-.08-1.01-.16-1.98-.12-.32.04-.52.04-.16-.36.28-.24,1.33-1.17,3.75-.69.56.28.97.24.36-.04-.36-.16-1.13-.56-2.7-.36-.28.12-.56.08-.89-.32-.24-.28-.81-.97.04-1.53.44-.24,1.21-.73,2.75-.24.24.2.72.44.4-.36-.07-.16-.15-.31-.24-.45-.19-.3-.41-.57-.57-.76-.04-.04-.07-.07-.1-.09-.15-.11-.16.12-.02.29.04.16.4.85-.16.85,0,0-.65.36-1.54-.52-.12-.12-.56-.49-.93-.36.16.24.48,1.29-.16,1.61,0,0-.16.04-.28-.28-.24-.41-1.09-1.46-2.02-1.86l-.28.04s.12.16.36.32c.24.16,1.69,1.21,1.61,2.1,0,.52-.2.77-.44.97-.44,0-1.81-.32-2.86-.04-.32.12-.44-.08-.04-.61l.24-.48c-.4.04-.97.24-.52-.32.16-.16.44-.48.44-.48l-.49.12c-.16,0-.24-.08-.08-.36l.48-.69c-.12.04-.4.16-.65.32-.36.2-.48.04-.16-.52l.28-.44c-.24.04-2.02,1.21-2.38,1.53.16.12.45.73.49.97-.08.16-.16.44.2.81.16.24.16.4.16.56s.2.32.2.32c0,0,.4.52-.4.44-.28.08-.28.45-.61-.36-.12-.4-.2-1.49-1.25-1.9l.16-.36c-.16-.24-2.5-1.09-4.28-1.21,0,.32-.08,1.37-1.13,1.89.4,0,1.86,0,2.62,1.49,0,0-.36.44-1.17.44-.4.12-.48.49-.53.69.4-.2,1.94-.97,3.63-.69.85.37,2.06.69,4.56-.2.69-.28,2.3-.69,3.43.24,0,0,.2.2-.28.32-.48.12-3.27,1.29-3.51,1.45-.4.12-.81.73-.97.93-.16.2-1.01.93-1.53.97-.53.04-1.66-.16-3.11.69-.28.16-.69.24-.89-.53l-.08-.4c.48-.2,1.65-1.01,3.71-1.7-.28.04-2.66.48-4.32.97-.28.2-.56.32-1.01-.36-.32-.53-1.13-.61-1.49-.69-.36-.08-1.09-.16-1.09-1.45-.08-.24-.04-.85-.04-.85-.2.12-1.29.57-1.73,2.38l-.32-.04c.04-.57.73-2.02,1.45-2.7l-.2-.49c-.28-.16-2.26-1.41-2.75-2.3l.67-.48.18-.13c.05-.03.11-.06.17-.08.18-.06.39-.04.48.2.12-.16.81-1.01,1.41-.77q.4.08.81,0c.12-.2.32-.85,1.09-.28.28.2.65.61.65.61l2.87.48c.32.12.4-.04.49-.28.2-.2.48-.52.44.04l-.08.44s1.54.49,1.9.44c-.16-.32-1.01-2.3-1.01-3.71-.04-.16.04-.4.28-.28.24.12.32.2.36.73,0,0,.32,1.65.81,2.06l.04-1.66.16-.36c.24.16.52.2.52.2.12.04.24.53.2.89l-.12,1.66c.16-.16.87-.7,1.21-3.01.03,0,.05,0,.08.01.72.12,1.73.12,2.1-.12.08-.05.2-.17.14-.38,0,0-.01-.01-.04-.03-.06-.04-.17-.08-.3.03,0,0-.06.06-.12-.09-.06-.15-.27-.15-.33.06,0,0-.51.48-.91-.24v-.39c.42-.06.76-.39,1.42,0,0,0,.15-.45.24-.57-.21,0-1.51.18-1.72-.27,0,0,.03-.12.24-.09.51.09,1.36.03,1.57-.03.16-.04.2-.17.21-.23,0-.02,0-.04,0-.04-.15.03-.64.21-.88-.12,0,0-.39.27-.76.15-.18-.03-.94.49-1.06.55-.3.12-.67.15-.85-.46-.06-.12.24-.09.42-.06.33.09.51-.12.79-.36.12-.12.45-.64,1.79-.58l.55-.3h-.55l-.67-1.42-.03-.82c-.3-.21-.12-.39-.03-.57,0,0,.15-.58-.15-.18-.09.12-.24.3-.55.18-.32-.07-.91-.06-1.03.03-.12.09-.3.12-.18-.33,0-.24.06-.58-.24-1-.03-.18-.27-1.63.21-1.82.15-.09.73-.06.7.45,0,.21.52.7.61-.24-.03-.3.06-1-1-1.27-.12-.02-.56.19-.97.42.01.05,0,.1,0,.1,0,0-.45,1.82-.52,2.03-.12.67-1.09,1.24-1.94,1.61-.48.09-.51-.06-.21-.24.55-.27,1.45-1.12,1.6-1.39.16-.32.43-1.27.56-1.79-.08.06-.15.11-.19.15-.12.15-.4.27-.06-.24.36-.3.76-.88.88-1.03.39-.39.82-.48,1.18-.42.36.06.85.15.91.88,0,0,.26.17.38,0-.01-.24-.08-.63-.08-.63.05.01.09.04.13.08,0-.02,0-.04-.01-.07-.12-.21-1-1.24-2.36-.57-.18.15-.52.21-.79.03-.12-.03-.45-.06-.67.12-.09,0-.45.12-.55.24-.12-.06-.73.03-.91.24-.27.09-.54.15-.76.12-.33,0-.85,0-1.57.85-.3.36-1.51,1.48-1.18,2.78,0,0,.09.31-.18.82-.18.36-.3,1-.03,1.76.09.24.09.52.03.67-.06.15-.09.33.21.45.06.18.12.61.24.82.12.21.12.48.12.61.09.3.24.48.48.72.12.18.06.34-.03.55-.12.33.09.51.27.64.05.08.1.13.04.3-.42.01-1.81.12-3.22.92h-1.25c-.2.04-.69.4-1.13.61,0,0-.52.24-.97.2-.65,0-1.41.48-1.78,1.25,0,0-.32.4-.52.44-.4.24-1.01.97-.36,3.39.2.97,1.05,3.51,2.46,3.51.2.15.15.28.32.77.12.14.33.38.57.66h23.9s.02-.01.03-.02c.37-.24.57-.44.57-1.65,0,0,0,0-.01,0-.07.04-.4.26-.79.76Zm-12.94-16.83c.15.03.21.03.39.06.3.39.67.18.76.15-.57-.33.06-.39.24-.39.64.12.21.27.12.3-.09,0,.03.18.03.18.18.21.36.76.39.97.03.36-.06.45-.18.48-.12.03-.15.06-.21.18-.18.51-.42.3-.52.12.03-.63-.79-1.09-1.03-1.21-.61-.7-.15-.88,0-.85Zm-2.7,2.97c-.12-.18-.63-.82-.57-1.36.06-.09.3.03.3.03l.45.79s.45.15.45.55c-.03.24-.36.33-.64,0Zm-.09-2.45s.73-.39.79-.49c.15-.09.21-.24.24-.36.21-.33.24-.06.3.06-.03.24-.09.76-.36.85-.36.15-.94.48-1.51.42-.36-.06.45-.48.54-.48Z"/><path class="cls-2" d="m101.65,19.24c-.3.08-.4.22-.5.28.16.02.63.38.71.63.06.36.3.25.34.07,0,0,0,0,0,0,.18-.66.09-1.07-.02-1.37-.04-.12-.09-.22-.12-.31,0-.02-.01-.04-.02-.05,0,0,0,.01,0,.02-.03.34-.24.67-.38.75Z"/><path class="cls-2" d="m101.85,21.6c-.08-.08-.2-.16-.12.04.08.2.12.4.04.46-.3.16.16.97.24,1.09.1.22.16.26.16.14,0-.09.01-.23.06-.4.02-.07.05-.14.08-.21.22-.12.1-.2.1-.2-.04-.12-.02-.18.08-.24.22-.18.06-.47-.16-.49,0,0-.01,0-.02,0-.27.07-.39-.09-.47-.21Z"/><path class="cls-2" d="m91.56,32.72c-.16.04-.53.4-.93.24-.12-.28-.56-1.05-1.29-.77,0,0,.28.04.4.65.04.16.2.81.45,1.05.12-.24.6-.45,1.66-.73,0,0-.08-.24.12-.32,0,0,.08-.2-.4-.12Z"/><path class="cls-1" d="m101.47,17.57c-.13.16-.38,0-.38,0-.06-.73-.55-.82-.91-.88-.36-.06-.79.03-1.18.42-.12.15-.51.73-.88,1.03-.33.51-.06.39.06.24.05-.04.11-.09.19-.15-.13.52-.4,1.47-.56,1.79-.15.27-1.06,1.12-1.6,1.39-.3.18-.27.33.21.24.85-.36,1.82-.94,1.94-1.61.06-.21.52-2.03.52-2.03,0,0,.01-.06,0-.1.41-.23.85-.44.97-.42,1.06.27.97.97,1,1.27-.09.94-.61.46-.61.24.03-.52-.54-.54-.7-.45-.48.18-.24,1.63-.21,1.82.3.42.24.76.24,1-.12.45.06.42.18.33.12-.09.71-.1,1.03-.03.3.12.45-.06.55-.18.3-.39.15.18.15.18-.09.18-.27.36.03.57l.03.82.67,1.42h.55c.21-.22-.31-1.17-.52-1.55-.05.17-.06.31-.06.4,0,.12-.06.08-.16-.14-.08-.12-.54-.93-.24-1.09.08-.06.04-.26-.04-.46-.08-.2.04-.12.12-.04.08.12.2.28.47.21.01-.03.02-.04.02-.04l-.4-.52c.14-.34.21-.71.25-1.03-.04.18-.28.29-.34-.07-.08-.24-.54-.61-.71-.63.1-.06.2-.2.5-.28.14-.08.35-.41.38-.75-.14-.22-.3-.26-.3-.26,0-.04.02-.07.02-.11.02-.09.04-.2.04-.36s-.08-.56-.27-.75c-.04-.04-.08-.07-.13-.08,0,0,.07.39.08.63Z"/><path class="cls-1" d="m190.82,87.65c-1.96-2.89-2.56-3.7-3.56-7.14v-.05s-12.28-36.76-12.28-36.76l-.31-.36c-.08-.09-.31-.36-.74-.67-.43-.3-1.1-.73-2.2-.75-1-.04-2.14.57-2.72,1.36-.6.75-.92,1.58-1.19,2.61l-11.23,32.68c-.03.07-.06.13-.08.2l-1.38-2.49c-.56-1-.82-1.5-.92-1.87-.11-.36-.19-.8-.19-1.92v-15.14c0-.84.11-1.38.3-1.86.19-.48.48-.93,1-1.51l3.66-4.09h-21.59l3.76,4.1c.52.57.75.97.91,1.42.16.45.25,1.03.25,1.94l-.03,15.13c-.02,1.57-.3,2.52-1.02,3.51l-2.96,3.92h17.71c-1.55,3.47-3.1,6.27-4.22,7.55l-3.47,4.05h45.13l-2.64-3.84Zm-18.88-1.72c-.25.71-.61,1.42-.85,1.8l-1.67,2.65-1.76-2.69c-.59-.87-1.02-2.09-1.01-3.02-.01-1.03.35-2.49.74-3.97l2.52-8.13.17.69,1.67,7.18c.15,1.26.41,2.37.59,3.37,0,.04.02.13.02.24,0,.41-.14,1.16-.4,1.87Z"/><path class="cls-1" d="m129.79,74.34c-.18-.46-.29-1.03-.29-1.87v-3.22c1,.2,1.97.24,2.82.24,2.59,0,5.09-.9,6.91-2.73,1.82-1.82,2.83-4.48,2.82-7.49,0-1.72-.42-3.3-1.18-4.59-1.15-1.95-2.94-3.16-4.73-3.85-1.8-.7-3.66-.95-5.33-.96h-16.56,0s-13.53,0-13.53,0l-3.35,9.12-3.41-9.12h-25.5l1.66,3.5c.17.36.27.77.26,1.03,0,.04-.04.43-.18.92l-2.03-5.44h-33.86l2.49,3.79c.45.69.68,1.17.86,1.73.17.55.28,1.23.33,2.28l-.09,14.27c-.08,1.57-.51,3.21-1.16,3.84l-1.76,1.92c1.12-3.33,1.73-7.12,1.73-11.26,0-.22,0-.44,0-.66-.11-7.06-2.1-12.79-5.37-16.82-3.25-4.03-7.84-6.28-12.66-6.27-.09,0-.17,0-.25,0-5.1.07-9.85,2.6-13.15,6.92C1.96,53.96,0,60.03,0,67.38c0,.22,0,.44,0,.66.11,7.09,2.09,12.96,5.35,17.14,3.23,4.17,7.84,6.63,12.78,6.63h.03c.08,0,.15,0,.23,0l-.03-2.45.04,2.45c5.25-.07,9.98-2.88,13.19-7.38.98-1.36,1.83-2.88,2.55-4.53h23.34l.5-1.78,3.52-12.45c.31.68.61,1.31.85,1.84.21.45.38.83.5,1.1v3.87c0,.83-.12,1.34-.3,1.8-.19.46-.5.94-1.04,1.56l-3.56,4.06h36.15v.03h5.85v-.03h35l-4.21-4.19c-.5-.5-.76-.91-.94-1.37Zm-.29-15.49c.26.06.36.16.44.24.13.13.41.62.41,1.8,0,.87-.28,1.77-.65,2.28-.07.09-.13.17-.19.23v-4.55Zm-106.12,10.68c-.24,2.97-.77,5.9-1.63,7.78-.42.94-.9,1.6-1.32,1.95-.44.35-.76.48-1.38.5-.09,0-.17,0-.26-.01-.54-.06-.98-.26-1.58-.9-.88-.93-1.76-2.86-2.3-5.17-.55-2.31-.82-4.99-.82-7.45,0-.94.04-1.84.11-2.68.19-2.37.84-5.08,1.77-6.96.46-.94.99-1.66,1.43-2.04.46-.39.73-.47,1.06-.48.03,0,.07,0,.12,0l.21-2.44-.21,2.44c.71.07,1.22.31,1.81.86.88.82,1.74,2.47,2.29,4.59.55,2.11.82,4.64.82,7.11,0,.99-.04,1.97-.12,2.91Zm32.71-1.03c-.71.57-1.66.95-2.81,1.17-1.14.22-2.43.27-3.69.27v-12.62c.02-1.53.33-2.41,1.15-3.56l1.56-2.1,2.94,2.51c.94.8,1.99,2.23,2.89,4.18.18.38,1.43,3.06,2.62,5.64.09.2.18.39.27.59l-4.92,3.93Zm25.33,3.63c-.25,1.56-.74,2.44-1.8,3.71l-1.82,2.13-1.95-2.18c-.53-.6-.79-1.03-.97-1.48-.17-.45-.27-.99-.27-1.87v-3.88l7.84-15.73.44.73c.49.83.71,1.46.72,2.16.01,4.89-1.42,10.94-2.17,16.4Zm20.98,3.12c0,.19-.01.3-.02.35l-1.21,1.06,1.17-3.11c.01.75.07,1.34.06,1.7Zm-10.65-1.7l1.17,3.11-1.21-1.06c0-.05-.02-.16-.02-.35,0-.36.05-.95.06-1.7Zm24.02,2.33c-.98-1.24-1.34-2.04-1.53-3.67-.55-5.42-1.59-11.2-1.59-16.17,0-.81.28-1.61.78-2.34l1.73-2.5,1.66,2.47c.83,1.31,1.03,1.92,1.07,3.65l-.03,15.13c-.04,1.51-.38,2.24-1.34,3.26l-.49.49-.26-.32Z"/><path class="cls-5" d="m35.89,65.81c-.11-6.92-2.06-12.46-5.19-16.31-3.12-3.85-7.46-5.98-12.02-5.97-.08,0-.16,0-.23,0-4.84.07-9.34,2.45-12.52,6.6-3.19,4.15-5.11,10.04-5.11,17.25,0,.22,0,.43,0,.65.11,6.94,2.05,12.64,5.18,16.65,3.11,4.01,7.48,6.32,12.15,6.32h.02c.07,0,.15,0,.22,0l-.02-1.63.03,1.63c4.97-.07,9.44-2.71,12.54-7.04,3.12-4.34,4.96-10.36,4.96-17.49,0-.22,0-.43,0-.65Zm-11.7,3.8c-.25,3.02-.78,6.01-1.69,8.05-.45,1.02-.99,1.78-1.54,2.24-.56.46-1.1.68-1.91.69-.11,0-.22,0-.33-.01-.77-.07-1.42-.42-2.12-1.16-1.03-1.11-1.93-3.14-2.49-5.53-.57-2.39-.84-5.13-.84-7.64,0-.96.04-1.89.11-2.75.2-2.45.86-5.24,1.85-7.25.49-1.01,1.07-1.81,1.63-2.3.57-.49,1.05-.68,1.6-.69.06,0,.12,0,.19,0l.14-1.63-.14,1.63c.9.08,1.61.43,2.31,1.09,1.04.98,1.94,2.77,2.51,4.97.58,2.2.85,4.79.85,7.31,0,1.01-.04,2.02-.13,2.98Z"/><path class="cls-5" d="m56.59,69.16c-1.66,1.37-4.46,1.63-7.03,1.61-.27,0-.53,0-.79-.01v-13.42c.02-1.68.4-2.78,1.31-4.04l1.93-2.6h-16.18l1.66,2.53c.93,1.46,1.19,2.21,1.32,4.45l-.09,14.29c-.09,1.64-.5,3.48-1.37,4.39l-2.51,2.74h22.03l.34-1.19,3.36-11.91-3.97,3.17Z"/><path class="cls-5" d="m132.32,68.68c2.4,0,4.68-.83,6.33-2.49,1.65-1.66,2.59-4.07,2.58-6.92.04-3.21-1.65-5.61-3.76-6.87-2.11-1.29-4.56-1.7-6.66-1.71h-15.03l1.71,2.54c.91,1.4,1.18,2.27,1.21,4.1l-.03,15.13c-.03,1.7-.49,2.7-1.57,3.83l-1.13,1.14-.84-1.03c-1.05-1.32-1.52-2.34-1.71-4.11-.54-5.38-1.6-11.18-1.59-16.25,0-1,.34-1.96.92-2.8l1.77-2.56h-13.23l-3.92,10.65-3.99-10.65h-10.79,0s-12.86,0-12.86,0l1.11,2.33c.21.45.35.96.34,1.38,0,.19-.09.73-.28,1.35-.18.6-.43,1.28-.7,1.96l-2.61-7.02h-15.21l3.37,2.88c1.07.91,2.17,2.43,3.1,4.45.18.38,1.42,3.05,2.62,5.63.6,1.29,1.19,2.56,1.62,3.51.22.47.4.87.52,1.14.02.04.04.08.05.11v4.05c-.04,1.81-.4,2.54-1.55,3.9l-2.38,2.71h17.92l-2.44-2.72c-1.12-1.32-1.4-2-1.45-3.89v-4.08l8.59-17.23,1.2,2c.54.9.83,1.69.83,2.58,0,5.03-1.44,11.1-2.18,16.51-.26,1.73-.87,2.8-1.99,4.13l-2.31,2.7h16.07l-2.21-2.67c-.64-.79-.92-1.52-.93-2.63,0-1.13.14-2.58.32-4,.91,2.6,1.69,5.33,3.03,8.37l.43.97h4.73l3.58-9.55c.11,1.28.18,2.54.18,3.74,0,.83.07,1.51.07,1.97,0,.34-.03.54-.07.65-.04.11-.06.16-.22.3l-3.26,2.86h14.68,0s18.62,0,18.62,0l-2.81-2.79c-1.1-1.15-1.43-1.99-1.47-3.82v-4.28c1.26.41,2.52.48,3.64.49Zm-3.64-10.71s.08,0,.11,0c.99.02,1.44.25,1.75.59.31.34.62,1.04.62,2.35,0,1.03-.32,2.08-.8,2.75-.48.66-.95.94-1.55.97l-.13-.02v-6.64Z"/><path class="cls-5" d="m154.41,76.66c-.55-.99-.85-1.54-.99-2.02-.15-.47-.22-1.02-.23-2.17v-15.14c.04-1.83.41-2.64,1.51-3.92l2.44-2.72h-17.9l2.5,2.74c1.1,1.27,1.33,1.96,1.38,3.91l-.03,15.13c-.01,1.68-.33,2.86-1.18,4l-1.97,2.62h15.82l-1.35-2.43Z"/><path class="cls-5" d="m170.19,90.67h21.71l-1.76-2.56c-1.96-2.88-2.66-3.87-3.67-7.38v-.03s-12.22-36.59-12.22-36.59l-.21-.24c-.06-.06-.25-.28-.6-.54-.35-.24-.89-.58-1.72-.6-.76-.02-1.61.42-2.09,1.05-.49.61-.79,1.35-1.03,2.33l-11.25,32.75c-1.76,4.13-3.56,7.54-4.94,9.12l-2.31,2.7h18.53l-1.66-2.53c-.65-.98-1.15-2.32-1.14-3.47,0-1.2.38-2.71.77-4.19l3.4-10.96.88,3.58,1.68,7.21c.14,1.23.39,2.33.59,3.36.02.1.03.24.03.39.04,1.12-.79,3.22-1.38,4.11l-1.58,2.5Z"/><path class="cls-2" d="m18.68,44.35c-.08,0-.15,0-.22,0-4.58.07-8.83,2.3-11.88,6.28-3.06,3.98-4.94,9.68-4.94,16.75,0,.21,0,.42,0,.64.11,6.8,2,12.32,5,16.16,2.99,3.84,7.11,6,11.51,6h.01c.07,0,.14,0,.21,0v-.82s0,.82,0,.82c4.68-.07,8.9-2.54,11.89-6.7,3-4.17,4.8-10.02,4.81-17.02,0-.21,0-.42,0-.64-.18-13.52-7.72-21.48-16.39-21.48Zm6.33,25.33c-.26,3.07-.78,6.12-1.76,8.31-1.01,2.21-2.27,3.41-4.2,3.42-.13,0-.26,0-.4-.02-1.01-.09-1.86-.57-2.65-1.42-2.39-2.56-3.57-8.58-3.54-13.73,0-.98.04-1.93.11-2.82.21-2.54.88-5.4,1.93-7.55.53-1.07,1.15-1.96,1.82-2.55.68-.59,1.36-.89,2.14-.89.08,0,.17,0,.25.01l.07-.81-.07.81c2.16.18,3.73,1.83,4.83,4.51,1.09,2.66,1.59,6.22,1.58,9.67,0,1.04-.04,2.06-.13,3.05Z"/><path class="cls-2" d="m49.56,71.58c-.55,0-1.08-.02-1.61-.05v-14.2c0-1.83.47-3.15,1.47-4.53l.96-1.3h-13.05l.83,1.27c1,1.54,1.33,2.55,1.46,4.88l-.09,14.34c-.1,1.71-.48,3.73-1.59,4.91l-1.25,1.37h19.56l.17-.59,2.67-9.46-1.99,1.58c-1.96,1.58-4.94,1.8-7.54,1.79Z"/><path class="cls-2" d="m72.96,72.47v-4.27l8.32-16.7h-10.25l.55,1.17c.25.53.42,1.15.42,1.73.02.69-.49,2.28-1.09,3.74-.25.62-.51,1.23-.76,1.78l-3.13-8.41h-12.43l1.68,1.44c1.19,1.01,2.34,2.63,3.31,4.73.18.38,1.42,3.05,2.62,5.63.6,1.29,1.19,2.56,1.63,3.51.22.47.4.87.53,1.15.05.11.09.21.13.28v4.22c-.02,1.97-.53,3.01-1.75,4.44l-1.19,1.36h14.29l-1.22-1.36c-1.23-1.4-1.64-2.42-1.66-4.43Z"/><path class="cls-2" d="m112.6,72.39c-.54-5.33-1.6-11.15-1.59-16.34,0-1.19.41-2.31,1.07-3.27l.89-1.28h-11.1l-4.48,12.18-4.56-12.18h-9.3l.74,1.24c.58.97.95,1.92.95,3,0,5.18-1.46,11.27-2.18,16.62-.28,1.9-1,3.16-2.18,4.56l-1.15,1.35h12.56l-1.1-1.34c-.75-.91-1.11-1.87-1.12-3.15,0-1.76.31-4.17.63-6.12.06-.36.12-.71.17-1.03,1.53,3.53,2.32,7.13,4.12,11.18l.21.49h3.64l4.61-12.29c.27,2.47.54,4.96.54,7.29,0,.78.07,1.44.07,1.97-.02.79-.09,1.13-.57,1.57l-1.63,1.43h13.75l-1.09-1.33c-1.13-1.41-1.69-2.64-1.89-4.54Z"/><path class="cls-2" d="m137.04,53.09c-1.92-1.18-4.24-1.58-6.24-1.59h-13.49l.85,1.27c.99,1.5,1.33,2.62,1.34,4.56l-.03,15.13c-.01,1.88-.6,3.17-1.81,4.41l-1.38,1.39h14.68l-1.41-1.4c-1.24-1.26-1.69-2.43-1.71-4.4v-5.51c1.44.78,3.02.9,4.45.9,2.22,0,4.27-.76,5.75-2.25,1.48-1.49,2.35-3.67,2.35-6.34.02-2.94-1.45-5.02-3.37-6.18Zm-8.27,12.34l-.54-.06-.37,1.13v-9.31c.32-.03.63-.05.93-.05,1.14,0,1.86.31,2.36.86.5.55.82,1.47.82,2.89,0,1.19-.36,2.38-.95,3.22-.59.83-1.33,1.3-2.25,1.32Z"/><path class="cls-2" d="m142.56,76.96l-.99,1.31h12.8l-.67-1.21c-1.1-2.03-1.29-2.22-1.32-4.58v-15.14c.02-1.99.51-3.1,1.72-4.47l1.22-1.36h-14.22l1.25,1.37c1.23,1.38,1.57,2.42,1.59,4.46l-.03,15.13c0,1.79-.37,3.19-1.35,4.49Z"/><path class="cls-2" d="m171.67,89.86h18.67l-.88-1.28c-1.95-2.86-2.76-4.04-3.79-7.62h0s-12.15-36.44-12.15-36.44l-.1-.12c-.07-.03-.58-.79-1.7-.85-.51-.01-1.08.27-1.46.75-.38.48-.66,1.13-.89,2.05l-11.27,32.8c-1.79,4.18-3.59,7.63-5.09,9.37l-1.15,1.35h15.24l-.83-1.26c-.72-1.09-1.28-2.55-1.28-3.92,0-1.36.42-2.94.8-4.42l4.27-13.78,1.58,6.44,1.69,7.26c.14,1.19.38,2.29.59,3.35.03.16.05.35.05.55.02,1.41-.85,3.52-1.51,4.54l-.79,1.25Z"/><path class="cls-1" d="m79.96,52.32h-7.64c.3.62.5,1.35.5,2.08,0,1.93-2.16,6.29-2.72,7.7l-3.64-9.78h-9.65c1.31,1.12,2.52,2.84,3.52,5.01.36.76,4.97,10.68,4.97,10.75v4.39c0,2.14-.65,3.49-1.95,4.98h10.66c-1.33-1.49-1.87-2.83-1.87-4.98v-4.46l7.82-15.69Z"/><path class="cls-1" d="m47.13,72.3v-14.96c0-1.97.53-3.53,1.63-5.01h-9.92c1.07,1.62,1.48,2.9,1.59,5.31l-.09,14.38c-.11,1.78-.47,3.98-1.8,5.44h17.08l1.98-7.02c-2.25,1.8-5.42,1.97-8.05,1.97-.83,0-1.63-.04-2.43-.1Z"/><path class="cls-1" d="m18.47,45.16c-8.77.14-16.24,8.61-16.01,22.84.21,13.42,7.56,21.49,15.91,21.36,8.92-.14,16.11-9.47,15.89-23.53-.21-13.37-7.58-20.8-15.79-20.67Zm7.35,24.58c-.55,6.43-2.2,12.88-7.24,12.45-5.69-.48-7.44-11.56-6.82-18.85.46-5.4,2.81-12.08,7.03-11.72,5.95.51,7.69,10.37,7.03,18.12Z"/><path class="cls-1" d="m110.19,56.06c0-1.38.48-2.66,1.22-3.73h-8.97l-5.04,13.72-5.13-13.72h-7.29c.62,1.04,1.07,2.14,1.07,3.42,0,5.32-1.48,11.44-2.19,16.73-.3,2.07-1.12,3.52-2.37,4.98h9.05c-.86-1.04-1.31-2.22-1.31-3.67,0-3.7,1.27-9.73,1.27-9.73,2.38,4.4,3.08,8.65,5.21,13.43h2.54l5.64-15.03c.3,3.53.89,7.33.89,10.85,0,1.8.41,3.11-.78,4.15h9.86c-1.21-1.49-1.87-2.94-2.07-4.98-.53-5.29-1.6-11.13-1.6-16.41Z"/><path class="cls-1" d="m130.81,52.32h-11.96c1.07,1.59,1.48,2.97,1.48,5.01l-.03,15.14c0,2.07-.71,3.63-2.04,4.98h10.75c-1.39-1.38-1.95-2.87-1.95-4.98v-16c.56-.07,1.15-.14,1.75-.14,2.58,0,4,1.49,4,4.56,0,2.7-1.57,5.36-4.06,5.36l-.59-.07c1.27.72,2.75.86,4.18.86,4.08,0,7.28-2.76,7.28-7.78,0-5.36-5.03-6.95-8.79-6.95Z"/><path class="cls-1" d="m153.49,52.32h-10.54c1.36,1.49,1.81,2.87,1.81,5.01l-.03,15.13c0,1.9-.41,3.52-1.51,4.98h9.77c-1.09-1.97-1.42-2.56-1.42-4.98v-15.13c0-2.14.62-3.56,1.92-5.01Z"/><path class="cls-1" d="m188.8,89.04c-1.95-2.84-2.86-4.21-3.9-7.86l-12.09-36.25s-1.76-2.05-2.63,1.64l-11.29,32.86c-1.81,4.23-3.62,7.72-5.23,9.6h11.95c-.79-1.2-1.41-2.78-1.41-4.37s.46-3.17.83-4.64l5.15-16.62,2.28,9.3,1.7,7.32c.13,1.15.37,2.24.58,3.33.33,1.75-.75,4.37-1.58,5.68h15.64Z"/><path class="cls-6" d="m78.62,84.69h0c0-.79-.4-1.27-.91-1.56l.7-.97.25-.35-.34-.27c-.67-.53-1.48-.78-2.53-.78-.99,0-1.77.36-2.2.95l-.21-.17c-.67-.53-1.48-.78-2.53-.78s-1.88.41-2.29,1.08v-.99h-7.67v1.37l-.97-1.2-.14-.17h-14.71v5.89h2.57v-1.63h2.29v1.63h2.57v-3.58h1.24v3.58h2.57v-3.58h1.22v3.58h2.56v-1.47l1.05,1.3.14.17h7.3v-.54c.66.41,1.5.63,2.42.63.98,0,1.75-.31,2.21-.85.69.55,1.66.85,2.74.85,1.61,0,2.66-.84,2.66-2.14Z"/><path class="cls-6" d="m80.26,84.93h0c0,1.15.94,1.91,2.33,1.91.52,0,.99-.11,1.43-.33l.2.2.27.28.32-.23,1.06-.78.44-.32-.39-.37-.33-.32c.15-.22.3-.47.46-.77l.24-.42-.44-.21-.89-.42c.08-.2.12-.42.12-.64h0c0-1.04-.83-1.76-2.01-1.76s-2.06.79-2.06,1.84h0c0,.27.05.52.15.76-.73.47-.89,1.11-.89,1.59Z"/><path class="cls-6" d="m148.55,80.85h-5.16v1.09c-.56-.78-1.42-1.2-2.45-1.2-.84,0-1.62.31-2.2.87-.34.33-.59.73-.74,1.17v-1.93h-2.56v1.37l-.97-1.2-.14-.17h-2.23v4.35l-1.72-4.11-.12-.28h-2.26l-.12.28-1.72,4.11v-4.35h-2.45l-.13.22-.68,1.12-.68-1.12-.13-.22h-2.45v1.22c-.09-.19-.22-.36-.37-.51-.47-.47-1.18-.7-2.12-.7h-2.89v1.94c-.42-1.2-1.59-2.05-3-2.05-1.25,0-2.32.66-2.84,1.65v-1.54h-5.08v1.22c-.09-.19-.22-.36-.37-.51-.47-.47-1.18-.7-2.12-.7h-7.91v1.15c-.41-.72-1.26-1.15-2.42-1.15h-2.7v5.89h2.57v-1.35h.09c.78,0,1.44-.2,1.92-.57.22-.18.4-.39.54-.63v2.55h7.6v-.91l.46.7.13.2h4.78v-1.63h2.46c.5,1.04,1.58,1.74,2.87,1.74,1.42,0,2.59-.85,3.02-2.06v1.95h2.57v-.91l.46.7.13.2h4.74v-1.39l.31.48.13.21h.52l.13-.21.31-.48v1.39h4.7l.11-.29.14-.38h1.12l.15.38.11.29h4.72v-1.47l1.05,1.3.14.17h2.15v-1.91c.15.45.4.85.75,1.18.57.54,1.32.84,2.13.84,1.08,0,1.92-.4,2.51-1.2v1.09h5.2l-.04-5.89Zm-36.69,2.96c0,.33-.2.66-.58.66s-.59-.34-.59-.67h0c0-.34.2-.67.58-.67s.59.34.59.67h0Zm29.61.24c-.18.33-.33.39-.54.39-.35,0-.48-.35-.48-.65h0c0-.32.15-.65.48-.65.19,0,.35.06.5.36l.17.32-.13.22Zm1.92.56l-1.3-.74-.18-.1.15-.09,1.33-.78v1.71Z"/><path class="cls-6" d="m113.6,87.2h-4.87v1.37l-.97-1.2-.14-.17h-9.43l-.14.18-.6.79v-.97h-14.79l-.1.33-.3,1.01-.35-1.04-.1-.31h-2.09l-.1.31-.35,1.04-.3-1.01-.1-.33h-2.71l.19.59,1.63,5.02.1.31h2.1l.11-.3.45-1.27.45,1.27.11.3h2.1l.1-.31,1.32-4.05v4.33h12.62v-1.13l.56.91.13.22h9.8v-1.47l1.05,1.3.14.17h4.41c2.15,0,3.48-1.14,3.48-2.98h0c0-1.83-1.28-2.92-3.42-2.92Zm-13.23,4.55l-1.19-1.89,1.19-1.48v3.38Zm14.06-1.61h0c0,.2,0,.53-.62.59v-1.16c.62.05.62.39.62.57Z"/><path class="cls-6" d="m47.96,48.56c.9,0,1.69-.3,2.25-.86.57-.57.83-1.28.83-2.3v-4.57h-3.08v4.6c0,.07-.01.32-.17.32-.11,0-.24-.03-.5-.39l-.29-.4-.38.32-1.46,1.23-.31.26.23.34c.65.97,1.59,1.44,2.88,1.44Z"/><path class="cls-6" d="m57.62,48.57c2.3,0,4.11-1.73,4.11-3.94v-.02c0-2.2-1.8-3.92-4.09-3.92s-4.11,1.73-4.11,3.94v.02c0,2.2,1.8,3.92,4.09,3.92Zm.95-3.92c0,.51-.32,1.03-.93,1.03-.47,0-.95-.36-.95-1.05v-.02c0-.51.32-1.03.93-1.03.47,0,.95.36.95,1.05v.02Z"/><polygon class="cls-6" points="70.49 48.43 70.95 48.43 70.9 40.84 70.45 40.84 64.75 40.84 64.3 40.84 64.3 41.29 64.3 47.97 64.3 48.43 64.75 48.43 70.49 48.43"/><polygon class="cls-6" points="80.61 48.16 80.72 48.47 81.04 48.47 82.99 48.47 83.31 48.47 83.42 48.17 84.16 46.06 84.91 48.17 85.02 48.47 85.34 48.47 87.28 48.47 87.61 48.47 87.72 48.16 89.9 41.43 90.09 40.84 89.47 40.84 87.17 40.84 86.83 40.84 86.74 41.16 86.2 42.99 85.58 41.13 85.47 40.82 85.15 40.82 83.22 40.82 82.89 40.82 82.79 41.13 82.17 42.99 81.63 41.16 81.54 40.84 81.2 40.84 78.86 40.84 78.24 40.84 78.43 41.43 80.61 48.16"/><polygon class="cls-6" points="98.46 48.43 98.91 48.43 98.86 40.84 98.41 40.84 92.71 40.84 92.26 40.84 92.26 41.29 92.26 47.97 92.26 48.43 92.71 48.43 98.46 48.43"/><polygon class="cls-6" points="104.17 48.43 104.62 48.43 104.62 47.97 104.62 41.29 104.62 40.84 104.17 40.84 101.94 40.84 101.48 40.84 101.48 41.29 101.48 47.97 101.48 48.43 101.94 48.43 104.17 48.43"/><path class="cls-6" d="m110.3,48.43c1.4,0,2.55-.37,3.34-1.06.76-.68,1.17-1.63,1.17-2.77v-.02c0-2.34-1.66-3.74-4.43-3.74h-3.01v7.59h2.93Zm1.35-3.78c0,.87-.75.93-1.14.93v-1.88c1.14.03,1.14.66,1.14.93v.02Z"/><polygon class="cls-6" points="123.57 48.43 124.02 48.43 123.97 40.84 123.52 40.84 117.82 40.84 117.37 40.84 117.37 41.29 117.37 47.97 117.37 48.43 117.82 48.43 123.57 48.43"/><path class="cls-6" d="m129.26,48.43h.45v-1.57l.9,1.37.13.2h3.65l-.49-.71-1.28-1.87c.73-.51,1.12-1.27,1.12-2.19v-.02c0-.78-.24-1.4-.74-1.9-.59-.59-1.51-.9-2.73-.9h-3.72v7.59h2.69Zm.97-4.81c.4,0,.4.13.4.19v.02c0,.13-.14.2-.4.2h-.51v-.4h.52Z"/><path class="cls-6" d="m136.13,45.6l.54-.02c1.71-.08,2.58-.93,2.58-2.54v-2.2h-3.12v4.76Z"/><path class="cls-6" d="m145.14,48.55c2.07,0,3.4-1.07,3.4-2.71v-.02c0-1.01-.54-1.62-1.29-2.02l1.05-1.45.25-.35-.34-.27c-.88-.69-1.92-1.01-3.3-1.01-.98,0-1.81.26-2.4.76-.57.48-.89,1.18-.89,1.95v.02c0,.86.4,1.42.95,1.8v.02s-1.21,1.42-1.21,1.42l-.29.34.33.29c.91.8,2.23,1.24,3.72,1.24Z"/><path class="cls-1" d="m45.54,81.3h4.18v1.42h-2.51v.63h2.33v1.3h-2.33v1.63h-1.67v-4.99Z"/><path class="cls-1" d="m50.4,81.3h1.67v4.99h-1.67v-4.99Z"/><path class="cls-1" d="m54.22,82.71h-1.47v-1.41h4.6v1.41h-1.47v3.58h-1.67v-3.58Z"/><path class="cls-1" d="m58.01,81.3h1.56l1.77,2.2v-2.2h1.65v4.99h-1.48l-1.85-2.3v2.3h-1.65v-4.99Z"/><path class="cls-1" d="m63.85,81.3h4.25v1.37h-2.61v.51h2.44v1.2h-2.44v.54h2.65v1.37h-4.29v-4.99Z"/><path class="cls-1" d="m68.46,85.54l.89-1.06c.54.41,1.16.58,1.75.58.3,0,.43-.08.43-.21h0c0-.16-.16-.24-.69-.34-1.12-.23-2.1-.55-2.1-1.6h0c0-.96.74-1.7,2.12-1.7.96,0,1.67.23,2.25.68l-.81,1.13c-.47-.34-1.03-.49-1.5-.49-.25,0-.36.09-.36.21h0c0,.15.14.24.66.33,1.28.24,2.13.61,2.13,1.61h0c0,1.06-.86,1.7-2.2,1.7-1.01,0-1.92-.29-2.56-.84Z"/><path class="cls-1" d="m73.41,85.54l.89-1.06c.54.41,1.16.58,1.75.58.3,0,.43-.08.43-.21h0c0-.16-.16-.24-.69-.34-1.12-.23-2.1-.55-2.1-1.6h0c0-.96.74-1.7,2.12-1.7.96,0,1.67.23,2.25.68l-.81,1.13c-.47-.34-1.03-.49-1.5-.49-.25,0-.36.09-.36.21h0c0,.15.14.24.66.33,1.28.24,2.13.61,2.13,1.61h0c0,1.06-.86,1.7-2.2,1.7-1.01,0-1.92-.29-2.56-.84Z"/><path class="cls-1" d="m84.09,85.93c-.44.3-.93.45-1.5.45-1.08,0-1.88-.51-1.88-1.44h0c0-.61.32-1.1,1.05-1.42-.22-.32-.31-.62-.31-.93h0c0-.77.63-1.4,1.61-1.4s1.56.56,1.56,1.3h0c0,.58-.35,1.02-.9,1.3l.45.43c.16-.21.31-.47.46-.73l1.02.48c-.22.4-.43.75-.66,1.05l.61.59-1.06.78-.45-.46Zm-.79-.83l-.69-.71c-.18.13-.25.28-.25.43h0c0,.26.19.41.47.41.15,0,.31-.06.47-.14Zm.09-2.53h0c0-.22-.12-.35-.3-.35s-.31.15-.31.38h0c0,.19.08.34.22.53.28-.14.39-.35.39-.56Z"/><path class="cls-1" d="m88.3,81.3h2.24c1.33,0,2.23.59,2.23,1.77h0c0,1.22-.92,1.86-2.27,1.86h-.54v1.35h-1.67v-4.99Zm2.12,2.44c.43,0,.71-.19.71-.55h0c0-.38-.26-.56-.71-.56h-.46v1.11h.45Z"/><path class="cls-1" d="m93.41,81.3h4.25v1.37h-2.61v.51h2.44v1.2h-2.44v.54h2.65v1.37h-4.29v-4.99Z"/><path class="cls-1" d="m98.43,81.3h2.44c.88,0,1.45.22,1.8.57.3.3.46.67.46,1.18h0c0,.74-.38,1.25-.98,1.54l1.16,1.7h-1.9l-.94-1.42h-.36v1.42h-1.67v-4.99Zm2.39,2.37c.4,0,.64-.18.64-.48h0c0-.33-.25-.49-.63-.49h-.73v.98h.72Z"/><path class="cls-1" d="m103.81,81.3h4.18v1.42h-2.51v.63h2.33v1.3h-2.33v1.63h-1.67v-4.99Z"/><path class="cls-1" d="m108.55,83.81h0c0-1.46,1.19-2.61,2.73-2.61s2.71,1.14,2.71,2.59h0c0,1.46-1.19,2.61-2.73,2.61s-2.71-1.14-2.71-2.59Zm3.76,0h0c0-.61-.41-1.14-1.05-1.14s-1.03.53-1.03,1.11h0c0,.61.41,1.14,1.05,1.14s1.03-.53,1.03-1.11Z"/><path class="cls-1" d="m114.73,81.3h2.44c.88,0,1.45.22,1.8.57.3.3.46.67.46,1.18h0c0,.74-.38,1.25-.98,1.54l1.16,1.7h-1.9l-.94-1.42h-.36v1.42h-1.67v-4.99Zm2.39,2.37c.4,0,.64-.18.64-.48h0c0-.33-.25-.49-.63-.49h-.73v.98h.72Z"/><path class="cls-1" d="m120.11,81.3h1.74l1.07,1.75,1.07-1.75h1.74v4.99h-1.66v-2.47l-1.15,1.77h-.03l-1.15-1.77v2.47h-1.63v-4.99Z"/><path class="cls-1" d="m128.32,81.26h1.65l2.1,5.02h-1.81l-.26-.67h-1.75l-.26.67h-1.78l2.1-5.02Zm1.27,3.17l-.46-1.21-.46,1.21h.91Z"/><path class="cls-1" d="m132.56,81.3h1.56l1.77,2.2v-2.2h1.65v4.99h-1.48l-1.85-2.3v2.3h-1.65v-4.99Z"/><path class="cls-1" d="m138.29,83.81h0c0-1.5,1.16-2.61,2.65-2.61,1.1,0,1.84.53,2.26,1.3l-1.38.81c-.19-.36-.45-.61-.9-.61-.56,0-.93.49-.93,1.09h0c0,.66.38,1.12.93,1.12.47,0,.73-.26.94-.63l1.38.78c-.42.74-1.12,1.35-2.36,1.35-1.38,0-2.59-1.04-2.59-2.59Z"/><path class="cls-1" d="m143.84,81.3h4.25v1.37h-2.61v.51h2.44v1.2h-2.44v.54h2.65v1.37h-4.29v-4.99Z"/><path class="cls-1" d="m76.81,87.65h1.75l.71,2.39.81-2.41h1.44l.81,2.41.71-2.39h1.72l-1.63,5.02h-1.45l-.88-2.48-.88,2.48h-1.45l-1.63-5.02Z"/><path class="cls-1" d="m85.3,87.65h4.25v1.37h-2.61v.51h2.44v1.2h-2.44v.54h2.65v1.37h-4.29v-4.99Z"/><path class="cls-1" d="m90.32,87.65h4.25v1.37h-2.61v.51h2.44v1.2h-2.44v.54h2.65v1.37h-4.29v-4.99Z"/><path class="cls-1" d="m95.34,87.65h1.67v1.87l1.42-1.87h1.94l-1.74,2.17,1.77,2.82h-1.99l-.98-1.58-.43.52v1.06h-1.67v-4.99Z"/><path class="cls-1" d="m100.83,87.65h4.25v1.37h-2.61v.51h2.44v1.2h-2.44v.54h2.65v1.37h-4.29v-4.99Z"/><path class="cls-1" d="m105.85,87.65h1.56l1.77,2.2v-2.2h1.65v4.99h-1.48l-1.85-2.3v2.3h-1.65v-4.99Z"/><path class="cls-1" d="m111.69,87.65h1.91c1.98,0,2.97.98,2.97,2.45h0c0,1.49-1.01,2.54-3.03,2.54h-1.85v-4.99Zm1.67,1.45v2.08h.28c.76,0,1.25-.31,1.25-1.03h0c0-.73-.49-1.05-1.25-1.05h-.28Z"/><path class="cls-1" d="m45.46,46.87l1.46-1.23c.26.36.51.58.87.58s.62-.31.62-.77v-4.15h2.18v4.11c0,.88-.2,1.48-.7,1.97-.46.46-1.13.73-1.93.73-1.28,0-2.01-.52-2.5-1.24Z"/><path class="cls-1" d="m53.99,44.65v-.02c0-1.94,1.59-3.48,3.65-3.48s3.64,1.53,3.64,3.46v.02c0,1.94-1.59,3.48-3.65,3.48s-3.64-1.53-3.64-3.46Zm5.04,0v-.02c0-.79-.54-1.51-1.4-1.51s-1.38.71-1.38,1.49v.02c0,.79.54,1.51,1.4,1.51s1.38-.71,1.38-1.49Z"/><path class="cls-1" d="m64.75,41.29h5.7v1.83h-3.5v.68h3.26v1.61h-3.26v.73h3.55v1.83h-5.74v-6.68Z"/><path class="cls-1" d="m78.86,41.29h2.34l.94,3.21,1.08-3.22h1.93l1.08,3.22.94-3.21h2.3l-2.18,6.73h-1.95l-1.17-3.32-1.17,3.32h-1.95l-2.18-6.73Z"/><path class="cls-1" d="m92.71,41.29h5.7v1.83h-3.5v.68h3.26v1.61h-3.26v.73h3.55v1.83h-5.74v-6.68Z"/><path class="cls-1" d="m101.94,41.29h2.23v6.68h-2.23v-6.68Z"/><path class="cls-1" d="m107.81,41.29h2.56c2.65,0,3.98,1.31,3.98,3.28v.02c0,1.97-1.35,3.38-4.06,3.38h-2.48v-6.68Zm2.23,1.95v2.79h.37c1.02,0,1.68-.42,1.68-1.38v-.02c0-.96-.66-1.38-1.68-1.38h-.37Z"/><path class="cls-1" d="m117.82,41.29h5.7v1.83h-3.5v.68h3.26v1.61h-3.26v.73h3.55v1.83h-5.74v-6.68Z"/><path class="cls-1" d="m127.03,41.29h3.26c1.18,0,1.94.3,2.4.76.4.4.61.9.61,1.58v.02c0,.97-.51,1.65-1.32,2.04l1.56,2.27h-2.55l-1.26-1.91h-.48v1.91h-2.23v-6.68Zm3.2,3.18c.53,0,.86-.24.86-.65v-.02c0-.43-.33-.64-.85-.64h-.97v1.31h.96Z"/><path class="cls-1" d="m136.48,44.34c.62-.08.97-.36.97-.85h-.87v-2.19h2.21v1.75c0,1.56-.91,2.03-2.15,2.09l-.17-.79Z"/><path class="cls-1" d="m141.71,46.97l1.19-1.42c.73.55,1.56.78,2.34.78.4,0,.57-.1.57-.29v-.02c0-.19-.21-.3-.93-.44-1.5-.31-2.81-.73-2.81-2.15v-.02c0-1.27.99-2.25,2.83-2.25,1.29,0,2.24.31,3.01.92l-1.09,1.51c-.63-.46-1.38-.66-2-.66-.33,0-.49.11-.49.28v.02c0,.18.18.3.89.43,1.71.31,2.85.81,2.85,2.16v.02c0,1.4-1.15,2.26-2.95,2.26-1.35,0-2.58-.38-3.43-1.13Z"/></g></svg>