<?xml version="1.0" encoding="UTF-8"?><svg id="_レイヤー_2" xmlns="http://www.w3.org/2000/svg" viewBox="0 0 730.73 143.52"><defs><style>.cls-1{fill:#fff;}.cls-2{fill:none;}</style></defs><g id="_レイヤー_1-2"><g id="_レイヤー_2-2"><g id="header"><rect class="cls-2" width="314.38" height="143.52"/><path class="cls-1" d="m113.41,109.53l2.07-8.98h3.37c.42-.04.84-.04,1.25,0,.25.04.49.13.71.25.32.2.56.52.66.89.11.45.11.92,0,1.37-.1.48-.31.93-.62,1.32-.28.38-.65.7-1.07.91-.27.14-.55.24-.84.3-.5.03-1,.03-1.5,0h-1.89l-.89,3.78-1.25.16Zm2.28-4.85h2.1c.56.04,1.12-.08,1.62-.34.38-.29.63-.71.71-1.18.15-.38.08-.82-.18-1.14-.39-.27-.87-.4-1.34-.34h-2.28l-.62,3.01Zm7.34,4.85l.84-3.62c.08-.54.36-1.03.77-1.39.42-.33.95-.5,1.48-.48h.27l.27-1.16h-.3c-.42,0-.84.1-1.21.32-.38.26-.7.59-.96.98l.27-1.16h-1.09l-1.5,6.52h1.14Zm4.01-3.26c.18-.99.69-1.88,1.44-2.55.71-.62,1.63-.95,2.57-.93.83-.08,1.64.26,2.16.91.44.79.53,1.72.25,2.57-.18.99-.69,1.88-1.44,2.55-.71.62-1.63.94-2.57.91-.83.08-1.64-.26-2.16-.91-.43-.78-.52-1.7-.25-2.55m1.16,0c-.24.59-.24,1.25,0,1.85.3.45.83.7,1.37.64.62.02,1.22-.21,1.66-.64.49-.51.83-1.15.96-1.85.23-.6.23-1.27,0-1.87-.31-.45-.83-.69-1.37-.64-.62,0-1.22.22-1.69.64-.5.51-.83,1.16-.96,1.87m7.75,3.26l1.3-5.65h1.21l.21-.87h-1.25l.14-.55c.04-.3.16-.58.34-.82.16-.14.38-.22.59-.21h.5l.21-.98h-.8c-.45-.02-.88.13-1.23.41-.35.32-.58.76-.66,1.23l-.23.96h-1.09l-.21.87h1.09l-1.3,5.65,1.18-.05Zm7.5-2.1h1.09c-.26.69-.73,1.28-1.34,1.69-.62.43-1.36.65-2.12.64-.77.05-1.52-.29-1.98-.91-.42-.77-.51-1.68-.23-2.51.18-.99.66-1.9,1.39-2.6.65-.63,1.53-.97,2.44-.96.78-.08,1.55.25,2.03.87.42.75.5,1.64.23,2.46,0,.1,0,.2,0,.3v.18h-5.01c-.16.53-.1,1.11.16,1.59.3.4.78.62,1.28.57.43,0,.85-.11,1.21-.34.36-.24.65-.58.82-.98m-3.26-1.75h3.67c.15-.47.1-.98-.14-1.41-.31-.36-.76-.54-1.23-.5-.52-.01-1.02.16-1.41.5-.42.38-.73.87-.89,1.41m5.79,1.73c-.2.59-.09,1.24.3,1.73.51.44,1.18.66,1.85.59.8.06,1.6-.14,2.28-.57.56-.35.96-.92,1.09-1.57.14-.4.08-.84-.16-1.18-.39-.38-.89-.62-1.44-.68l-1.03-.25c-.28-.05-.54-.16-.77-.32-.09-.16-.09-.34,0-.5.06-.29.24-.54.5-.68.34-.16.72-.24,1.09-.23.36-.04.72.07,1,.3.23.19.33.51.25.8h1.09c.17-.52.03-1.09-.36-1.46-.5-.4-1.14-.6-1.78-.55-.69-.03-1.37.15-1.96.5-.49.32-.84.82-.98,1.39-.13.39-.08.81.14,1.16.36.35.82.58,1.32.66l1.18.32c.28.04.54.16.75.34.1.17.1.38,0,.55-.08.33-.29.6-.59.75-.37.2-.79.3-1.21.27-.41.03-.82-.09-1.14-.34-.25-.27-.34-.65-.25-1h-1.28m6.83,0c-.2.59-.08,1.25.32,1.73.5.44,1.16.65,1.82.59.8.06,1.6-.14,2.28-.57.57-.35.98-.92,1.12-1.57.13-.4.06-.84-.18-1.18-.39-.38-.89-.62-1.44-.68l-1.03-.25c-.27-.04-.53-.15-.75-.32-.09-.15-.09-.35,0-.5.06-.29.24-.54.5-.68.34-.16.72-.24,1.09-.23.37-.03.73.07,1.03.3.22.2.31.51.23.8h1.12c.16-.52.02-1.08-.36-1.46-.5-.4-1.14-.6-1.78-.55-.69-.03-1.37.14-1.96.5-.51.3-.88.81-1,1.39-.13.39-.08.81.14,1.16.37.36.84.59,1.34.66l1.18.32c.27.04.53.16.73.34.09.17.09.38,0,.55-.08.33-.29.6-.59.75-.37.19-.79.29-1.21.27-.41.04-.82-.09-1.14-.34-.25-.27-.36-.64-.27-1h-1.18m6.83,2.12l1.5-6.52h1.12l-1.5,6.52h-1.12Zm1.78-7.72l.3-1.25h1.12l-.3,1.25h-1.12Zm1.96,4.56c.18-.99.69-1.88,1.44-2.55.71-.62,1.63-.96,2.57-.93.83-.07,1.64.27,2.16.91.44.79.53,1.72.25,2.57-.18.99-.69,1.88-1.44,2.55-.71.61-1.63.94-2.57.91-.87.13-1.74-.22-2.28-.91-.43-.78-.52-1.7-.25-2.55m1.16,0c-.24.59-.24,1.25,0,1.85.31.45.84.7,1.39.64.62.02,1.22-.21,1.66-.64.48-.52.81-1.16.96-1.85.23-.6.23-1.27,0-1.87-.31-.45-.83-.69-1.37-.64-.62-.02-1.22.21-1.66.64-.5.51-.83,1.16-.96,1.87m11.96,3.26l.89-3.92v-.3c.08-.34.13-.68.16-1.03.03-.53-.27-1.01-.75-1.23-.39-.15-.81-.22-1.23-.21-.44,0-.88.09-1.28.27-.43.2-.81.48-1.12.84l.21-.96h-1.07l-1.18,6.38h1.12l.87-3.71c.12-.57.42-1.09.87-1.48.45-.35,1.02-.54,1.59-.52.36-.05.73.1.96.39.15.43.15.89,0,1.32l-.91,4.01.89.14Zm6.52-.87c-.39.33-.83.6-1.3.8-.42.18-.87.27-1.32.27-.55.06-1.09-.13-1.48-.52-.31-.41-.41-.94-.25-1.44.11-.56.43-1.05.89-1.39.55-.38,1.2-.61,1.87-.66h.82c.37-.02.74-.07,1.09-.16.11-.03.22-.09.3-.18.09-.16.15-.34.18-.52.1-.27.01-.57-.21-.75-.32-.19-.7-.28-1.07-.25-.44-.02-.87.09-1.25.32-.3.21-.51.53-.59.89h-.91c.14-.64.54-1.2,1.09-1.55.62-.41,1.35-.62,2.1-.59.66-.06,1.31.12,1.85.5.38.41.49,1,.3,1.53l-.75,3.28v.52c0,.07.16.14.32.14h.3l-.18.84h-.68c-.29.02-.57-.07-.8-.25-.11-.22-.11-.48,0-.71l-.3-.11Zm.46-2.44c-.53.19-1.08.31-1.64.36h-.59c-.35.03-.68.16-.96.36-.23.18-.39.44-.46.73-.09.26-.03.55.16.75.22.2.52.3.82.27.56,0,1.12-.15,1.59-.46.42-.25.73-.66.84-1.14l.23-.89Zm3.8,3.3l2.07-8.98h-1.16l-2.07,8.98h1.16Zm7.59,0l.93-4.06h4.33l.25-1.09h-4.19l.62-2.69h4.92l.27-1.14h-6.15l-2.07,8.98h1.09Zm6.58,0l1.57-6.65h1.12l-1.5,6.52-1.18.14Zm1.78-7.72l.3-1.25h1.12l-.27,1.25h-1.14Zm4.35,1.94h1.21l.21-.87h-1.21l.43-1.82h-1.14l-.41,1.82h-1l-.21.87h1l-1.03,4.37v1.07c0,.21.5.3,1.05.3h.91l.23-.93h-.62c-.16.02-.33-.03-.46-.14-.06-.19-.06-.4,0-.59l1.03-4.08Zm7.06,5.65l.91-3.92v-.3c.09-.33.14-.68.16-1.03.04-.18.04-.37,0-.55-.12-.3-.35-.54-.64-.68-.39-.15-.81-.22-1.23-.21-.45,0-.89.09-1.3.27-.43.2-.81.49-1.12.84l.23-.96h-1.09l-1.5,6.52h1.14l.84-3.71c.12-.57.42-1.09.87-1.48.45-.35,1.02-.54,1.59-.52.5,0,.82.14.96.39.14.43.14.89,0,1.32l-.93,4.01h1.12Zm7.18-2.1h1.12c-.28.69-.75,1.27-1.37,1.69-.62.43-1.36.65-2.12.64-.77.05-1.52-.29-1.98-.91-.41-.77-.5-1.67-.23-2.51.19-.99.67-1.89,1.39-2.6.66-.63,1.53-.97,2.44-.96.78-.08,1.55.25,2.03.87.42.75.5,1.64.23,2.46,0,.1,0,.2,0,.3v.18h-4.99c-.16.53-.1,1.11.16,1.59.3.4.78.62,1.28.57.43,0,.85-.11,1.21-.34.36-.24.65-.58.82-.98m-3.26-1.75h3.69c.15-.47.09-.99-.16-1.41-.3-.35-.75-.54-1.21-.5-.52-.02-1.04.16-1.44.5-.42.38-.73.87-.89,1.41m5.79,1.73c-.19.59-.08,1.24.3,1.73.51.43,1.18.65,1.85.59.8.06,1.6-.14,2.28-.57.58-.34.98-.91,1.09-1.57.15-.4.09-.84-.16-1.18-.39-.38-.89-.62-1.44-.68l-1.03-.25c-.27-.04-.53-.15-.75-.32-.09-.15-.09-.35,0-.5.06-.29.24-.54.5-.68.34-.16.72-.24,1.09-.23.36-.04.72.07,1,.3.23.19.33.51.25.8h1.12c.16-.52,0-1.08-.39-1.46-.49-.4-1.12-.6-1.75-.55-.7-.03-1.38.15-1.98.5-.49.32-.84.82-.98,1.39-.13.39-.08.81.14,1.16.37.36.84.59,1.34.66l1.18.32c.27.04.52.16.73.34.09.17.09.38,0,.55-.09.32-.3.59-.59.75-.37.19-.79.29-1.21.27-.41.04-.82-.09-1.14-.34-.25-.27-.36-.64-.27-1h-1.07m6.83,0c-.19.59-.07,1.24.32,1.73.5.44,1.16.65,1.82.59.8.06,1.6-.14,2.28-.57.57-.35.98-.92,1.12-1.57.14-.4.08-.84-.16-1.18-.4-.38-.91-.62-1.46-.68l-1.03-.25c-.27-.04-.53-.15-.75-.32-.09-.16-.09-.34,0-.5.07-.29.25-.53.5-.68.34-.16.72-.24,1.09-.23.37-.03.73.07,1.03.3.21.21.31.51.25.8h1.09c.16-.52.02-1.08-.36-1.46-.5-.4-1.14-.6-1.78-.55-.69-.03-1.37.15-1.96.5-.5.32-.86.81-1,1.39-.13.39-.08.82.16,1.16.35.36.82.59,1.32.66l1.18.32c.27.03.53.15.73.34.09.17.09.38,0,.55-.08.33-.29.6-.59.75-.37.19-.79.29-1.21.27-.41.04-.82-.09-1.14-.34-.25-.27-.34-.65-.25-1h-1.09m17.61,2.12l.25-1.12h-5.42l.68-3.01h4.92l.25-1.05h-4.92l.62-2.69h5.33l.25-1.12h-6.56l-2.07,8.98h6.67Zm6.83-.84c-.3.33-.66.6-1.07.77-.42.18-.88.28-1.34.27-.77.06-1.51-.29-1.94-.93-.4-.79-.48-1.71-.21-2.55.19-.96.68-1.83,1.39-2.51.61-.6,1.42-.95,2.28-.96.41-.02.82.08,1.18.27.32.2.58.5.73.84l.21-.89h1.09l-2.12,9.11h-1.07l.87-3.44Zm-3.37-2.51c-.24.62-.24,1.3,0,1.91.28.48.82.74,1.37.68.59,0,1.16-.23,1.57-.66.48-.51.8-1.15.93-1.85.22-.6.22-1.25,0-1.85-.28-.44-.78-.69-1.3-.64-.61-.02-1.2.21-1.64.64-.49.47-.81,1.09-.93,1.75m7.97-3.17l-.89,3.92v.3c-.09.34-.15.68-.18,1.03,0,.19.04.37.11.55.11.3.34.54.64.66.36.18.76.26,1.16.25.35-.08.68-.22.98-.41.43-.2.82-.5,1.12-.87l-.23.98h1.07l1.5-6.52h-1.12l-.82,3.51c-.11.63-.42,1.21-.89,1.64-.44.39-1.01.59-1.59.57-.5,0-.82-.14-.96-.39-.17-.42-.17-.9,0-1.32l.91-4.01-.82.11Zm6.31,6.52l1.5-6.52h.84l-1.5,6.52h-.84Zm1.78-7.72l.3-1.25h1.12l-.3,1.25h-1.12Zm.98,10.34l2.1-9.11h1.09l-.21.91c.33-.35.71-.64,1.14-.87.41-.19.85-.28,1.3-.27.77-.07,1.52.3,1.94.96.4.77.48,1.68.21,2.51-.19.97-.68,1.86-1.39,2.55-.62.58-1.43.91-2.28.93-.4,0-.8-.08-1.16-.25-.33-.16-.6-.43-.77-.75l-.77,3.42-1.18-.02Zm2.28-5.83c-.22.59-.22,1.23,0,1.82.31.44.83.67,1.37.62.61,0,1.19-.23,1.62-.66.5-.53.83-1.2.96-1.91.19-.58.14-1.21-.14-1.75-.28-.44-.78-.69-1.3-.64-.61-.02-1.2.22-1.62.66-.49.52-.82,1.17-.96,1.87m15.61,3.17l.91-3.92v-.18c.08-.36.14-.73.18-1.09.05-.19.05-.4,0-.59-.1-.29-.31-.53-.59-.66-.33-.17-.7-.25-1.07-.23-.43,0-.85.07-1.25.23-.42.2-.8.47-1.14.8-.1-.32-.31-.6-.59-.8-.31-.17-.65-.25-1-.23-.43-.01-.86.07-1.25.25-.41.2-.78.48-1.09.82l.23-.91h-1.09l-1.5,6.52h1.14l.89-3.85c.09-.53.36-1.02.77-1.37.38-.33.86-.51,1.37-.5.46,0,.75,0,.87.36.14.44.14.91,0,1.34l-.93,4.01h1.14l.89-3.85c.11-.53.38-1.02.77-1.39.39-.32.88-.49,1.39-.48.33-.05.67.09.87.36.14.44.14.91,0,1.34l-.91,4.01h1.03Zm7.18-2.1h1.12c-.26.69-.73,1.28-1.34,1.69-.62.43-1.36.65-2.12.64-.77.05-1.52-.29-1.98-.91-.42-.77-.51-1.67-.25-2.51.19-.99.69-1.9,1.41-2.6.65-.62,1.52-.97,2.41-.96.79-.09,1.56.24,2.05.87.41.76.49,1.64.23,2.46-.01.1-.01.2,0,.3v.18h-5.06c-.17.53-.11,1.11.16,1.59.29.41.78.62,1.28.57.43,0,.85-.11,1.21-.34.35-.24.63-.58.8-.98m-3.23-1.75h3.67c.15-.47.1-.98-.14-1.41-.31-.35-.76-.54-1.23-.5-.52-.01-1.02.16-1.41.5-.44.37-.75.86-.89,1.41m11.39,3.85l.89-3.92v-.3c.1-.33.16-.68.18-1.03.04-.18.04-.37,0-.55-.12-.3-.35-.55-.64-.68-.81-.32-1.72-.32-2.53,0-.42.2-.79.49-1.09.84l.21-.96h-1.07l-1.5,6.52h1.12l.87-3.71c.11-.58.41-1.1.87-1.48.45-.35,1.02-.54,1.59-.52.36-.05.72.1.93.39.17.42.17.9,0,1.32l-.91,4.01,1.09.07Zm4.78-5.65h1.21l.21-.87h-1.21l.43-1.82h-1.14l-.41,1.82h-1l-.21.87h1l-1.03,4.37c-.11.52,0,.87,0,1.07s.5.3,1.05.3h.91l.21-.93h-.59c-.16.02-.33-.03-.46-.14-.06-.19-.06-.4,0-.59l1.03-4.08Zm-6.56-56.41h-21.19l-10.66,45.93-10.8-46.59h-5.33l-32.24,46.59,1.98-8.63h-18.5l1.96-8.47h16.43l2.55-10.98h-16.45l1.59-6.83h17.95l2.55-11.05h-30.25l-3.55,15.47c-.14-11.25-8.84-15.95-18.23-16.08-14.71.18-27.37,10.47-30.55,24.83-1.13,4.29-1.02,8.8.3,13.03h-16.45l8.59-37.2h-12.42l-3.76,16.31c-.1-6.6-4.07-12.52-10.14-15.13l9.77-20.91-2.14-1.44-18.98,20.5c-7.17.48-13.96,3.38-19.27,8.22l5.01-7.5h-12.67l-17.34,27.34h-.36l-5.01-27.34H11.16L0,95.8h30.78l2.55-10.98H14.83l1.96-8.47h16.43l2.53-10.98h-16.43l1.57-6.83h17.84l1.98-8.59,9.73,46.41h5.24l19.27-28.86c-.52,1.38-.94,2.8-1.28,4.24-2.78,12.05,1.87,19.75,9.32,23.12l-9.8,20.94,2.14,1.44,19-20.5c11.04-.72,20.91-7.16,26.02-16.97l-3.71,15.95h29.96l2.28-9.43c3.17,6.65,10.27,9.98,18.09,9.98,10.17.21,19.66-5.13,24.74-13.94.27-.46.52-.93.75-1.39l-3.37,14.9h42.6l4.24-6.08h19.05l1.44,6.08h24.17l3.28-14.22h6.42l5.01,14.22h14.9l-6.61-17.11c14.12-8.29,15.95-31.14-3.01-31.21m-184.89-10.11l-4.78,10.18c-1.31-.35-2.66-.6-4.01-.73l8.79-9.45Zm-25.63,59.35l-8.79,9.45,4.78-10.21,9.48-20.25h-15.42l15.95-17.18h9.73l-4.35,9.29h15.42l-26.79,28.89Zm105.27-28.36h-21.92l-2.55,10.62h10.27c-2.49,4-7.01,6.29-11.71,5.92-7.31,0-10.8-5.24-8.95-13.24,1.71-7.4,7.31-13.46,15.1-13.46,4.9,0,7.7,1.64,8.75,5.79h11.89c-.32,1.44-.66,2.85-.98,4.28m46.93,10.91l8.43-12.71,2.64,12.71h-11.07Zm52.97-8.54h-8.84l2.78-12.07h8.84c7.02,0,3.9,12.07-2.78,12.07"/></g></g><path class="cls-1" d="m387.43,90.29l-1.53,2.91c-6.11-.56-11.34-1.61-15.71-3.16-4.68,1.46-9.8,2.51-15.36,3.16l-1.46-2.98c4.39-.33,8.58-1.02,12.58-2.08-1.54-.78-3.09-1.7-4.63-2.75-1.62.85-3.38,1.66-5.28,2.43l-2.01-2.52c1.96-.71,3.46-1.36,4.48-1.95-.21-.15-.58-.47-1.12-.94l2.29-1.87c.6.51,1.17.94,1.72,1.28,1.34-.77,2.62-1.66,3.82-2.67-1.27-.36-1.9-1.16-1.9-2.4v-4h3.32v2.95c0,.63.36.95,1.08.97.72.02,1.6.03,2.63.03,2.04,0,3.21-.04,3.5-.13s.51-.33.64-.71.21-.93.21-1.64l3.32.98c-.07,1.15-.3,2.03-.67,2.65-.37.62-.9,1-1.58,1.15-.68.15-2.76.23-6.24.23-.83.85-1.49,1.5-1.98,1.94h13.75v2.58c-2.55,1.97-4.8,3.45-6.75,4.44,3.53,1.05,7.82,1.76,12.87,2.11Zm-1.34-15.49h-3.4v-3.18h-24.8v3.13h-3.45v-5.81h31.64v5.86Zm-23.92-.41c-1.14,2.13-2.85,4.31-5.11,6.52l-2.58-1.76c2.1-1.99,3.79-4.05,5.06-6.18l2.63,1.42Zm22.54-11.03c-8.05,1.1-17.61,1.68-28.7,1.72l-1.18-2.74c2.26.05,4.37.07,6.31.07,8.92,0,16.15-.5,21.7-1.49l1.87,2.43Zm-20.62,4.23l-3.6.98c-1.26-.94-2.35-1.63-3.28-2.1l3.54-1.1c1.19.52,2.31,1.26,3.34,2.22Zm11.9,16.22h-11.57c1.69,1.15,3.6,2.16,5.73,3.02,2.26-.83,4.21-1.84,5.84-3.02Zm-2.48-16.33l-3.51,1.01c-.92-.66-2.12-1.42-3.6-2.26l3.49-1.19c1.36.67,2.56,1.49,3.62,2.43Zm.28,7.27l-2.91,1.39c-.65-.86-1.55-1.78-2.71-2.75l2.78-1.46c1.11.92,2.05,1.87,2.84,2.83Zm9.74-9.1c-1.18,1.13-2.52,2.07-4.01,2.84l-3.75-1.19c1.68-.92,3.15-1.88,4.4-2.88l3.36,1.23Zm1.46,13.25l-2.65,1.6c-1.31-2.35-2.84-4.54-4.61-6.59l2.63-1.46c1.77,2.03,3.31,4.17,4.63,6.45Z"/><path class="cls-1" d="m406.72,68.38l-2.15,2.51-.63-.8v2.33h-3.1v2.59h4.89v3.02h-4.89v9.83c1.6-.28,3.27-.67,5-1.17l.04,3.09c-3.94,1.03-8.49,1.93-13.64,2.7l-.69-2.99c2.18-.24,4.19-.56,6.04-.98v-10.48h-5.28v-3.02h5.28v-2.59h-2.95v-1.53c-.37.35-.82.72-1.34,1.1l-1.75-2.77c2.8-2.23,5.09-5.05,6.88-8.47l3.1.91c-.09.37-.24.7-.47,1,1.93,1.63,3.81,3.55,5.65,5.74Zm-10.17,18.3l-2.97.91c-.22-2.06-.72-4.5-1.49-7.3l2.82-.8c.71,2.25,1.26,4.65,1.64,7.2Zm6.85-17.29c-1.02-1.21-2.32-2.59-3.9-4.14-.96,1.53-2.05,2.91-3.28,4.14h7.18Zm2.78,11c-.4,1.85-1,3.73-1.79,5.63l-2.78-.94c.62-1.58,1.19-3.43,1.72-5.56l2.85.87Zm17.89,12.47h-3.36v-1.92h-10.17v1.92h-3.43v-26.71h4.24c1.08-1.58,2.05-3.33,2.91-5.28l3.47.8c-.7,1.49-1.52,2.99-2.48,4.48h8.83v26.71Zm-3.36-16.15v-7.39h-10.17v7.39h10.17Zm0,11v-7.91h-10.17v7.91h10.17Z"/><path class="cls-1" d="m462.9,65.95h-12.69l2.05,1.39c-.16.31-.49.78-.99,1.42,2.81-.4,5.59-1.17,8.34-2.29l1.83,2.1c-2.05.97-4.45,1.76-7.18,2.36v3.94c.8-.24,1.6-.56,2.41-.96l.65,2.52c-2.3.97-4.27,1.61-5.9,1.92l-.91-2.19c.44-.31.65-.69.65-1.15v-6.08c-1.19,1.58-2.18,2.78-2.95,3.61v5.95h-3.17v-5.67c-.8-1.33-1.8-2.75-3.02-4.26-.08,4.47-.36,7.12-.85,7.95s-1.52,1.25-3.09,1.25c-.24,0-.46-.01-.67-.04l-1.01-2.72c.19.02.38.04.58.04.71,0,1.17-.07,1.37-.22.21-.15.35-.65.45-1.51.09-.86.14-1.83.14-2.92h-2.65c-.17,3.4-1.61,6.09-4.31,8.07l-2.33-2.03c2.35-1.6,3.56-3.61,3.62-6.04h-2.41v-2.56h10.52c-.22-.33-.44-.59-.65-.76l2.22-1.12h-12.65v-2.77h14.7c-.16-.5-.42-1.08-.77-1.74l3.53-.55c.39.76.7,1.52.95,2.29h14.18v2.77Zm-3.34,26.99h-3.32v-4.46h-20.1c-.97,2.05-2.25,3.65-3.83,4.8l-2.67-2.4c2.7-1.55,4.05-4.29,4.05-8.23v-4.41h3.28v1.94h19.26v-1.97h3.32v14.73Zm-3.32-7.37v-2.67h-19.22c0,.89-.05,1.78-.15,2.67h19.37Zm-6.75-19.62h-5.69c1.48,2.1,2.43,3.46,2.85,4.1,1.06-1.34,2-2.71,2.84-4.1Zm14.14,10.41l-2.15,2.03c-2.3-1.54-3.92-3.83-4.85-6.88l2.63-.87c1.09,2.63,2.55,4.54,4.37,5.72Z"/><path class="cls-1" d="m501.41,92.3h-33.29v-3.13h10.75v-5.65h-8.9v-13.5h8.97v-4.97h-9.91v-3.13h31.57v3.13h-9.7v4.97h8.75v13.5h-8.79v5.65h10.54v3.13Zm-5.21-19.08h-8.73v-8.17h-5.13v8.17h-8.9v7.14h8.86v8.81h5.11v-8.81h8.79v-7.14Z"/><path class="cls-1" d="m539.7,86.37h-7.52v3.09c0,.94-.29,1.73-.86,2.38-.57.65-1.77.98-3.6.98-.77,0-1.95-.03-3.53-.09l-.88-2.88c2.55.04,4.1.02,4.64-.04.54-.06.81-.33.81-.8v-2.65h-22.39v-2.63h22.39v-1.12h3.42v1.12h7.52v2.63Zm-.37-4.69l-2.84,1.56c-.71-.85-1.24-1.45-1.6-1.79-10.74.58-19.65.82-26.76.73l-.88-2.58c1.84.04,3.97.05,6.38.05,3.2,0,5.77-.03,7.72-.09v-1.94h-11.66v-10.52h11.66v-1.71h-14.52v-2.51h14.52v-1.79h3.28v1.79h14.29v2.51h-14.29v1.71h11.81v10.52h-.99c1.44,1.4,2.73,2.75,3.86,4.05Zm-17.93,8.48l-2.56,2.26c-1.37-.97-3.35-2.07-5.93-3.29l2.54-2.26c2.29,1.02,4.27,2.11,5.95,3.29Zm-.04-18.85v-1.78h-8.32v1.78h8.32Zm0,3.82v-1.63h-8.32v1.63h8.32Zm11.81-3.82v-1.78h-8.53v1.78h8.53Zm0,3.82v-1.63h-8.53v1.63h8.53Zm.08,2.5h-8.6v1.83c3.51-.11,6.09-.25,7.76-.44-.29-.33-.53-.57-.73-.73l1.57-.66Z"/><path class="cls-1" d="m577.91,84.18h-14.98v8.72h-3.4v-8.72h-14.95v-2.74h14.95v-1.85h-13.14v-2.74h13.14v-1.78h-14.11v-2.74h8.71c-.41-.58-.85-1.1-1.32-1.56l2.56-1.35h-10.86v-2.72h11.7v-5.42h3.32v5.42h3.43v-5.42h3.34v5.42h11.53v2.72h-10.54l2.26,1.14c-.5.79-.92,1.39-1.27,1.78h8.79v2.74h-14.14v1.78h13.23v2.74h-13.23v1.85h14.98v2.74Zm-21.16,3.06c-3.51,2.41-6.81,4.23-9.91,5.49l-2.22-2.54c3.01-1.1,6.17-2.79,9.48-5.06l2.65,2.11Zm-3.3-22.53l-2.56,1.76c-1.11-1.25-2.24-2.33-3.4-3.22l2.56-1.88c1.36,1.09,2.49,2.2,3.4,3.34Zm12.69,4.73h-10.04c.73.85,1.44,1.82,2.13,2.91h5.78c.82-.92,1.53-1.9,2.13-2.91Zm12.46,20.58l-1.87,2.61c-3.67-2.03-7.31-3.67-10.93-4.94l1.98-2.63c3.46,1.26,7.07,2.91,10.82,4.96Zm-3.68-27.19c-.71.98-1.8,2.11-3.28,3.38l-3.02-1.71c1.17-.9,2.28-1.97,3.34-3.2l2.97,1.53Z"/><path class="cls-1" d="m590.75,61.51c-.35,1.5-.73,3.03-1.16,4.57l-.63,2.17v24.59h-3.25v-16.74c-.36.65-.85,1.45-1.46,2.4l-1.9-3.27c2.23-3.62,3.98-8.46,5.26-14.52l3.13.8Zm25.56,28.06l-.99,3.27c-7.14,0-11.88-.3-14.23-.91-2.34-.6-4.24-1.67-5.68-3.2-1.06,1.67-2.14,3.1-3.25,4.3l-2.84-2.04c1.69-1.63,2.97-3.25,3.83-4.83-1.18-1.8-2.16-3.75-2.93-5.86l2.74-1.63c.48,1.66,1.03,2.99,1.64,4,.49-1.54.79-3.54.91-6h-4.2v-2.54c1.14-2.08,2.36-4.62,3.64-7.6h-3.9v-2.84h7.44v2.84c-.81,1.99-1.92,4.39-3.32,7.2h3.51c.05,4.7-.56,8.78-1.83,12.22,1,1.11,2.15,1.97,3.46,2.57,1.31.6,2.88.94,4.71,1.03,1.83.09,3.94.13,6.34.13,1.78,0,3.42-.03,4.93-.09Zm-.26-18.19h-2.29v4.87h-5.62v2.38h7v2.68h-7v2.08h7.91v2.61h-7.91v2.7h-3.17v-2.7h-6.12v-2.61h6.12v-2.08h-5.35v-2.68h5.35v-2.38h-4.55v-2.54h4.55v-2.33h-5.95v-2.65h5.95v-1.97h-4.42v-2.58h4.42v-2.91h3.17v2.91h5.62v4.55h2.29v2.65Zm-5.47-2.65v-1.97h-2.44v1.97h2.44Zm-.04,4.97v-2.33h-2.41v2.33h2.41Z"/><path class="cls-1" d="m654.53,75.7c-1.36,1.46-3.04,2.97-5.04,4.55v8.79c0,1.14-.3,1.99-.9,2.56-.6.57-1.42.91-2.47,1.03s-3.29.18-6.73.2l-.95-3.02c1.09.04,2.21.05,3.34.05,2.23,0,3.5-.07,3.81-.2.31-.14.47-.4.47-.79v-6.25c-5.25,3.58-13.12,6.86-23.62,9.86l-1.68-2.84c7.43-1.85,14.8-4.52,22.13-8.03-6.39.67-13.38,1.24-20.95,1.71l-.88-3.09c.36,0,1.69-.04,3.97-.11v-16.2h4.7c.91-.89,1.74-1.97,2.48-3.23l3.64.73c-.54.94-1.13,1.77-1.79,2.5h15.43v12.42c.97-.73,2-1.71,3.1-2.91l1.94,2.29Zm-8.47-6.63v-2.36h-17.54v2.36h17.54Zm0,4.99v-2.42h-17.54v2.42h17.54Zm0,4.39v-1.78h-17.54v3.3c5.71-.3,11.56-.81,17.54-1.53Z"/><path class="cls-1" d="m693.06,81.6l-1.49,3.02c-.42-.07-.93-.2-1.53-.37v8.69h-3.32v-1.74h-5.77v1.74h-3.34v-11.19h6.38c-2.61-1.61-4.48-3.19-5.62-4.74h-4.61c-1.68,1.86-3.79,3.44-6.34,4.74h6.9v11.19h-3.25v-1.74h-5.84v1.74h-3.25v-8.69c-.44.18-.9.31-1.38.41l-1.72-2.7c4.07-1.33,7.43-2.98,10.09-4.96h-9.48v-2.82h12.56c.5-.6,1.03-1.42,1.6-2.43l3.53.39c-.29.6-.68,1.29-1.19,2.04h8.19c-.65-.45-1.36-.85-2.15-1.21l2.71-1.53c1.11.52,2.05,1.14,2.84,1.87l-1.49.87h6.12v2.82h-9.55c2.48,2.23,5.94,3.76,10.39,4.6Zm-19.14-10.38h-12.31v-9.4h12.31v9.4Zm-3.28-2.81v-3.82h-5.75v3.82h5.75Zm.45,19.93v-3.86h-5.84v3.86h5.84Zm19.18-17.13h-12.73v-9.4h12.73v9.4Zm-3.25-2.81v-3.82h-6.16v3.82h6.16Zm-.3,19.93v-3.86h-5.77v3.86h5.77Z"/><path class="cls-1" d="m713.38,78.1l-2.44,2.4c-1.29-2.04-2.56-3.77-3.79-5.21v17.5h-3.28v-16.29c-1.58,3.35-3.09,5.98-4.53,7.89l-2.44-2.68c2.7-3.14,4.96-6.96,6.79-11.46h-6.12v-3.18h6.31v-6.01h3.28v6.01h4.87v3.18h-4.87v.46c2.48,2.64,4.55,5.11,6.23,7.39Zm17.35-7.85h-3.97v18.73c0,1.14-.22,2-.67,2.6-.45.6-1.07.97-1.88,1.11-.8.14-2.6.21-5.4.21l-1.34-3.3c.41.05,2.03.07,4.87.07.66,0,.99-.33.99-.98v-14.27c-2.9,5.58-6.62,9.97-11.16,13.17l-2.37-2.33c5.1-3.62,9.07-8.63,11.92-15.01h-8.1v-3.15h9.7v-5.92h3.43v5.92h3.97v3.15Z"/></g></svg>